<?xml version="1.0" standalone="no"?><!DOCTYPE svg PUBLIC "-//W3C//DTD SVG 1.1//EN" "http://www.w3.org/Graphics/SVG/1.1/DTD/svg11.dtd"><svg t="1580616303354" class="icon" viewBox="0 0 1024 1024" version="1.1" xmlns="http://www.w3.org/2000/svg" p-id="1278" xmlns:xlink="http://www.w3.org/1999/xlink" width="32" height="32"><defs><style type="text/css"></style></defs><path d="M261.389474 711.410526h495.831579V401.515789H261.389474v309.894737z m326.063158-237.136842c5.389474-8.084211 13.473684-8.084211 21.557894-5.389473l110.484211 67.368421c8.084211 5.389474 8.084211 13.473684 5.389474 21.557894-2.694737 5.389474-8.084211 8.084211-13.473685 8.084211-2.694737 0-5.389474 0-8.08421-2.694737L592.842105 495.831579c-8.084211-5.389474-10.778947-13.473684-5.389473-21.557895z m-126.652632 175.157895c16.168421 0 29.642105-16.168421 35.031579-35.031579 0-5.389474 2.694737-8.084211 2.694737-13.473684 0-8.084211 5.389474-13.473684 13.473684-16.168421 8.084211 0 13.473684 8.084211 13.473684 16.168421 0 2.694737 0 8.084211 2.694737 13.473684 5.389474 16.168421 18.863158 37.726316 35.031579 37.726316 21.557895 0 37.726316-26.947368 37.726316-48.505263 0-8.084211 8.084211-16.168421 16.168421-16.168421s16.168421 8.084211 16.168421 16.168421c0 37.726316-24.252632 80.842105-67.368421 80.842105-21.557895 0-37.726316-13.473684-48.505263-29.642105-10.778947 16.168421-29.642105 29.642105-51.2 29.642105-40.421053 0-67.368421-48.505263-67.368421-80.842105 0-8.084211 8.084211-16.168421 16.168421-16.168421s16.168421 8.084211 16.168421 16.168421c-5.389474 16.168421 10.778947 45.810526 29.642105 45.810526z m-158.989474-121.263158l99.705263-48.505263c8.084211-2.694737 16.168421 0 18.863158 8.08421 2.694737 8.084211 0 16.168421-8.08421 18.863158l-99.705263 48.505263c-2.694737 0-5.389474 2.694737-5.389474 2.694737-5.389474 0-10.778947-2.694737-13.473684-8.08421 0-8.084211 2.694737-16.168421 8.08421-21.557895z m-29.642105 312.589474c5.389474 5.389474 13.473684 8.084211 18.863158 8.08421 5.389474 0 13.473684 0 21.557895-8.08421 2.694737-5.389474 8.084211-13.473684 10.778947-18.863158H261.389474c2.694737 2.694737 5.389474 13.473684 10.778947 18.863158z m439.242105 0c5.389474 5.389474 13.473684 8.084211 18.863158 8.08421 5.389474 0 13.473684 0 21.557895-8.08421 2.694737-5.389474 8.084211-13.473684 10.778947-18.863158H700.631579c2.694737 2.694737 8.084211 13.473684 10.778947 18.863158z" fill="#da94b1" p-id="1279"></path><path d="M512 0C229.052632 0 0 229.052632 0 512s229.052632 512 512 512 512-229.052632 512-512S794.947368 0 512 0z m355.705263 811.115789c-2.694737 2.694737-8.084211 5.389474-13.473684 5.389474h-59.284211c-2.694737 13.473684-10.778947 32.336842-18.863157 40.421053-10.778947 13.473684-29.642105 18.863158-43.11579 18.863158s-29.642105-5.389474-40.421053-18.863158c-8.084211-8.084211-16.168421-29.642105-18.863157-43.11579H353.010526c-2.694737 13.473684-10.778947 32.336842-18.863158 40.421053-10.778947 13.473684-29.642105 18.863158-43.115789 18.863158s-29.642105-5.389474-40.421053-18.863158c-8.084211-8.084211-16.168421-29.642105-18.863158-43.11579h-53.894736c-13.473684 0-26.947368-13.473684-26.947369-26.947368V320.673684c0-13.473684 13.473684-29.642105 26.947369-29.642105h247.915789l-153.6-78.147368c-8.084211-5.389474-13.473684-16.168421-8.08421-26.947369s16.168421-13.473684 26.947368-8.08421l212.88421 113.178947h43.11579l121.263158-172.463158c10.778947-10.778947 21.557895-10.778947 32.336842-5.389474s10.778947 18.863158 5.389474 26.947369l-105.094737 150.905263h256c8.084211 0 10.778947 5.389474 13.473684 8.08421 5.389474 5.389474 5.389474 16.168421 5.389474 21.557895v474.273684c-2.694737 2.694737-2.694737 10.778947-8.084211 16.168421z" fill="#da94b1" p-id="1280"></path><path d="M576.673684 323.368421H177.852632v463.494737H840.757895V323.368421h-264.084211z m215.578948 398.821053c0 5.389474 5.389474 10.778947-2.694737 18.863158-2.694737 2.694737-8.084211 5.389474-13.473684 5.389473H253.305263c-8.084211 0-26.947368-5.389474-26.947368-24.252631v-323.368421c0-16.168421 18.863158-24.252632 26.947368-24.252632h525.473684c5.389474 0 10.778947 2.694737 13.473685 8.084211 5.389474 5.389474 2.694737 13.473684 2.694736 18.863157l-2.694736 320.673685c-2.694737-2.694737 0-2.694737 0 0z" fill="#da94b1" p-id="1281"></path></svg>