<?xml version="1.0" standalone="no"?><!DOCTYPE svg PUBLIC "-//W3C//DTD SVG 1.1//EN" "http://www.w3.org/Graphics/SVG/1.1/DTD/svg11.dtd"><svg t="1580616316205" class="icon" viewBox="0 0 1024 1024" version="1.1" xmlns="http://www.w3.org/2000/svg" p-id="1552" xmlns:xlink="http://www.w3.org/1999/xlink" width="32" height="32"><defs><style type="text/css"></style></defs><path d="M441.05 164.53c49.52-9.62 101.09-8.57 150.18 3.06 43.01 10.18 84.04 28.57 120.29 53.84 65.19 45.14 114.56 112.69 137.32 188.68 20.42 67.17 20.07 140.33-0.41 207.44l-0.13 0.46c-23.01-53.51-74.79-93.34-132.27-102.5l-0.01-0.11c0.47-40.52-11.14-81.12-33.35-115.06-22.75-35.1-56.37-63.06-95.1-78.89-39.94-16.49-85.1-19.84-127.09-9.72-39.19 9.32-75.35 30.59-102.8 60.04-28.81 30.73-47.9 70.45-53.65 112.2-6.29 44.14 2.08 90.27 23.8 129.23 19.43 35.16 49.34 64.4 84.89 83.08 30.24 16.01 64.53 24.1 98.72 23.74h0.11c7.41 46.72 35.01 89.65 73.93 116.41 9 6.11 18.38 11.95 28.55 15.85l-0.56 0.16c-69.43 21.22-145.37 20.78-214.4-1.82-75.89-24.48-142.72-75.63-186.49-142.25-23.43-35.39-40.37-75.04-49.76-116.43-11.55-50.94-11.75-104.42-0.53-155.44 14.59-67.14 49.51-129.62 98.75-177.51 49.09-48.12 112.46-81.52 180.01-94.46z" fill="#5C5CEF" p-id="1553"></path><path d="M596.41 537.54c35.61-21.21 78.78-28.95 119.61-22.14l0.01 0.11c-0.55 37.38-11.1 74.74-31.06 106.43-16.48 26.73-39.2 49.58-65.79 66.26-31.95 20.42-69.77 31.29-107.63 31.82h-0.11c-5.28-31.73-1.94-64.9 9.96-94.81 14.36-36.47 41.23-67.8 75.01-87.67zM848.3 618.01l0.13-0.46c12.06 27.01 17.34 56.99 15.05 86.49-3.04 42.37-22.11 83.28-52.48 112.96-17.34 17.04-38.17 30.6-60.92 39.23-43.64 17.04-93.93 15.35-136.61-3.79l0.56-0.16c37.37-11.79 72.97-29.37 104.52-52.68 11.87-9.03 23.82-18.11 34.23-28.85 2.98-3 6.62-5.3 9.3-8.61 4.52-5.81 10.34-10.43 14.84-16.26 32.42-37 56.69-80.95 71.38-127.87z" fill="#19FFDC" p-id="1554"></path><path d="M716.03 515.51c57.48 9.16 109.26 48.99 132.27 102.5-14.69 46.92-38.96 90.87-71.38 127.87-4.5 5.83-10.32 10.45-14.84 16.26-2.68 3.31-6.32 5.61-9.3 8.61-10.41 10.74-22.36 19.82-34.23 28.85-31.55 23.31-67.15 40.89-104.52 52.68-10.17-3.9-19.55-9.74-28.55-15.85-38.92-26.76-66.52-69.69-73.93-116.41 37.86-0.53 75.68-11.4 107.63-31.82 26.59-16.68 49.31-39.53 65.79-66.26 19.96-31.69 30.51-69.05 31.06-106.43z" fill="#09EFDA" p-id="1555"></path></svg>