<?xml version="1.0" standalone="no"?><!DOCTYPE svg PUBLIC "-//W3C//DTD SVG 1.1//EN" "http://www.w3.org/Graphics/SVG/1.1/DTD/svg11.dtd"><svg t="1580616175930" class="icon" viewBox="0 0 1024 1024" version="1.1" xmlns="http://www.w3.org/2000/svg" p-id="6558" xmlns:xlink="http://www.w3.org/1999/xlink" width="32" height="32"><defs><style type="text/css"></style></defs><path d="M284.04736 336.19456l50.47296-75.3408 21.48352 27.01824 30.24896-49.45408 47.14496 88.31488V231.83872H232.41216v133.13536H433.408v-28.86144l-149.36064 0.08192z m-28.43648-77.27104c-0.03072-9.58464 7.66464-17.39264 17.20832-17.42848a17.37216 17.37216 0 0 1 17.42336 17.24928 17.3312 17.3312 0 0 1-17.24928 17.39264h-0.18432a17.21344 17.21344 0 0 1-17.19808-17.21344z m397.5168-5.02272h150.34368v-22.05184h-150.34368v22.05184z m0 41.86112h150.34368V273.7664h-150.34368v21.99552z m0-83.67616h150.34368v-22.0416h-150.34368v22.0416zM457.6768 253.9008h170.38848v-22.05184H457.6768v22.05184z m0 41.86112h170.38848V273.7664H457.6768v21.99552z m0-83.67616h170.38848v-22.0416H457.6768v22.0416zM232.12032 779.24864h395.94496v-22.0416H232.12032v22.0416z m0 41.9328h395.94496v-22.09792H232.12032v22.09792z m0-83.73248h395.94496v-22.03136H232.12032v22.03136z m421.00736 41.79968h150.34368v-22.0416h-150.34368v22.0416z m0 41.9328h150.34368v-22.09792h-150.34368v22.09792z m0-83.73248h150.34368v-22.03136h-150.34368v22.03136zM245.08416 190.04416c1.22368-0.128 2.432-0.128 3.65056 0 0.9984 0.22528 1.97632 0.5888 2.85696 1.14176 0.74752 0.57344 1.37216 1.31072 1.77664 2.17088 0.45568 1.024 0.6656 2.11968 0.60416 3.24608 0.07168 1.24416-0.256 2.47808-0.91136 3.52768a7.49568 7.49568 0 0 1-2.88256 2.34496c1.60768 0.3584 2.98496 1.29024 3.88096 2.61632a8.2944 8.2944 0 0 1 0.78336 8.41728 6.5536 6.5536 0 0 1-2.24768 2.49856c-0.9472 0.7168-2.0224 1.18784-3.16928 1.45408a13.30688 13.30688 0 0 1-3.63008 0.4864H231.6288v-27.904h13.45536z m-0.7424 11.25376a4.32128 4.32128 0 0 0 2.688-0.75264 3.00032 3.00032 0 0 0 0.99328-2.56 3.456 3.456 0 0 0 0-1.61792 2.24256 2.24256 0 0 0-0.91648-0.91136 3.23072 3.23072 0 0 0-1.40288-0.55296h-7.35744v6.49216l5.99552-0.09728z m0 11.91424c0.54784 0.1024 1.17248 0.1024 1.74592 0a4.16256 4.16256 0 0 0 1.41824-0.512c0.42496-0.3072 0.768-0.7168 0.98304-1.18784a3.64544 3.64544 0 0 0 0.40448-1.76128 3.56352 3.56352 0 0 0-1.2544-3.11296 4.9408 4.9408 0 0 0-3.16416-0.90112h-6.74304v7.71584l6.60992-0.24064z m21.07392 10.27584a7.84384 7.84384 0 0 1-4.48512 0.97792H257.536v-4.58752h3.24608a2.10944 2.10944 0 0 0 1.64352-0.86528 2.69824 2.69824 0 0 0 0.52736-1.63328 3.15392 3.15392 0 0 0 0-1.23904l-7.1168-19.00544h5.95456l4.55168 13.85472 3.94752-13.80352h5.79584l-8.50432 22.73792c-0.3072 1.408-1.0752 2.65728-2.16576 3.56352z m28.07296-26.29632l-2.47808 3.73248h-4.09088v10.35776a1.8688 1.8688 0 0 0 2.31424 2.35008h1.77664v4.31104h-2.95424c-0.8192 0.06144-1.64352 0.06144-2.46272 0a4.096 4.096 0 0 1-2.00704-0.72192 2.82624 2.82624 0 0 1-1.37728-1.37216 4.70016 4.70016 0 0 1-0.55296-2.44224v-12.48256H278.016v-3.73248h3.30752v-3.13344l5.5808-2.67264v5.80608h6.58432z m35.55328-7.14752c1.69984-0.06144 3.42528 0.24576 5.02272 0.81408 1.52064 0.50688 2.92352 1.40288 4.03968 2.57024 1.2032 1.20832 2.11456 2.68288 2.70848 4.3264 0.65024 1.9712 0.95744 4.01408 0.93184 6.1184 0.0256 1.87392-0.22528 3.74784-0.78336 5.56544a12.0832 12.0832 0 0 1-2.4064 4.48512 9.91232 9.91232 0 0 1-3.94752 2.91328 12.20608 12.20608 0 0 1-5.56544 1.09056h-12.34944v-27.89888l12.34944 0.01536z m-0.37888 22.74304c0.83456 0.128 1.7152 0.128 2.54976 0a6.6048 6.6048 0 0 0 3.7888-4.04992c0.41984-1.26976 0.65024-2.6112 0.6144-3.93216 0.01024-1.28512-0.14848-2.56-0.46592-3.79904a7.02976 7.02976 0 0 0-1.3056-2.93888 5.2224 5.2224 0 0 0-2.4832-1.8688 9.728 9.728 0 0 0-3.84512-0.62464h-4.33152v17.55648l5.4784-0.34304z m75.60192-2.81088a4.62336 4.62336 0 0 1-4.25984 3.78368c-4.31616 0-4.6336-5.69344-4.6336-5.69344a8.9088 8.9088 0 0 1 0-1.47968s0-5.66272 4.6336-5.70368a4.59776 4.59776 0 0 1 4.25984 3.74784h5.1712a9.62048 9.62048 0 0 0-9.65632-7.72096 9.84576 9.84576 0 0 0-9.9072 9.18528 17.9968 17.9968 0 0 0 0 2.87744 9.8304 9.8304 0 0 0 9.9072 9.16992 9.43104 9.43104 0 0 0 9.65632-7.70048l-5.1712-0.46592z m25.0624-1.30048h2.77504c0.08192-0.95232 0.08192-1.8944 0-2.80576a9.71776 9.71776 0 0 0-9.9072-9.4976 9.728 9.728 0 0 0-9.88672 9.18528 13.4144 13.4144 0 0 0 0 2.8672 9.68192 9.68192 0 0 0 9.88672 9.18528 9.48224 9.48224 0 0 0 9.4464-6.71744h-5.64736a4.29056 4.29056 0 0 1-3.80416 2.56c-3.39456 0-4.32128-3.64032-4.55168-5.14048h11.90912l-0.22016 0.36352z m-7.75168-7.75168c2.8672 0 3.96288 2.62656 4.41856 4.32128h-8.42752c0.45056-1.77664 1.54624-4.32128 4.39808-4.37248l-0.38912 0.0512z m-110.464 7.75168h2.80576c0.04608-0.95232 0.04608-1.8944 0-2.80576a9.83552 9.83552 0 0 0-9.92768-9.4976 9.74336 9.74336 0 0 0-9.8048 9.18528 13.4144 13.4144 0 0 0 0 2.8672 9.69216 9.69216 0 0 0 9.8048 9.18528 9.3184 9.3184 0 0 0 9.36448-6.71744h-5.632c-0.61952 1.536-2.1504 2.56-3.80416 2.56-3.4048 0-4.32128-3.64032-4.53632-5.14048h11.8784l-0.14848 0.36352z m-7.74656-7.75168a4.82304 4.82304 0 0 1 4.39808 4.32128h-8.38656c0.4352-1.77664 1.82784-4.32128 4.37248-4.37248l-0.384 0.0512z m61.19936-3.40992h-5.9904a13.17888 13.17888 0 0 0-4.17792-0.85504 9.74336 9.74336 0 0 0-9.72288 9.20064 13.4144 13.4144 0 0 0 0 2.8672 9.76384 9.76384 0 0 0 9.72288 9.20064 10.2912 10.2912 0 0 0 5.18144-1.40288l4.98688 1.40288v-20.41344z m-10.16832 16.24576c-4.2496 0-4.55168-5.69344-4.55168-5.69344a5.95456 5.95456 0 0 1 0-1.47968s0-5.66272 4.55168-5.70368c4.17792 0 4.54656 5.70368 4.54656 5.70368v1.47968c0 0.00512-0.36864 5.61152-4.54656 5.69344z m32.39936-10.8288a7.168 7.168 0 0 0-6.57408-6.26688 7.66976 7.66976 0 0 0-6.4 2.58048l-5.88288-1.73568v20.4288h5.4784v-11.67872c0-5.78048 4.6336-5.34016 4.6336-5.34016 3.49184 0 3.26144 4.75136 3.26144 4.75136v12.26752h5.54496V205.6704c0.00512-1.53088-0.06144-2.7392-0.06144-2.7392z" fill="#DBDCDC" p-id="6559"></path><path d="M1011.87584 506.01984c0-99.67616-29.31712-192.45568-79.616-270.42304L63.3088 287.03232C31.00672 353.17248 12.82048 427.44832 12.82048 506.01984c0 99.44064 29.18912 192.0512 79.2832 269.9008l870.76864-53.91872c31.39584-65.3824 49.00352-138.624 49.00352-215.98208" fill="#E62318" p-id="6560"></path><path d="M828.2112 556.52864v-37.38624l-118.12864 6.69696v-18.78016l-56.95488 3.23584v18.80576l-118.14912 6.72768v37.2992l118.14912-6.62016v82.32448l56.95488-3.26144v-82.28864z" fill="#FFFFFF" p-id="6561"></path><path d="M534.92736 487.58272v37.3248l40.56064-2.30912v-0.08192l104.68864-51.56352 106.98752 39.44448v0.15872l41.05216-2.4064v-37.36064l-27.36128 1.56672-70.64576-26.05056 93.5936-46.09024V335.5136l-56.97024 3.24608-131.03616 7.40352v-0.04608l-45.45024-21.66272-58.04032 92.22656 48.14336 17.48992 30.99648-49.23904 155.38688-8.81152v9.00608l-86.73792 42.68032-67.32288-24.832-22.72768 34.7136 40.04352 14.80192-68.18816 33.55648-26.97216 1.536z m262.52288 81.6896l-56.9856 3.17952 41.60512 69.05856 56.8832-3.22048-41.50272-69.0176z m-262.2976 86.38976l56.97024-3.16928 37.95456-73.62048-56.97536 3.27168-37.94944 73.51808z m-135.3728-83.82976l45.056 88.45824 63.08352-3.26144-45.07136-88.38144-63.06816 3.18464zM340.57728 507.10016l-46.09024-58.01984-62.85824 3.56352 46.01344 57.984 62.93504-3.52768z m0-72.4736l-46.09024-57.96864-62.85824 3.45088 46.01344 58.07104 62.93504-3.55328z" fill="#FFFFFF" p-id="6562"></path><path d="M394.83392 561.5616l105.22624-5.98016v-37.2992l-69.89824 3.92704V357.85216l-56.97536 3.16416v164.43392l-166.35904 9.50784v37.34016l115.72224-6.528-51.25632 67.4304-62.92992 3.6608v37.34016l105.6-6.10304v-0.13824z" fill="#FFFFFF" p-id="6563"></path><path d="M513.18784 18.29888c274.44736 0 497.72544 223.27808 497.72544 497.73056S787.6352 1013.76 513.18784 1013.76 15.4624 790.48192 15.4624 516.02944 238.74048 18.29888 513.18784 18.29888m0-10.24c-280.54528 0-507.97056 227.42016-507.97056 507.97056C5.2224 796.5696 232.64256 1024 513.18784 1024c280.54016 0 507.96544-227.4304 507.96544-507.97056 0-280.54528-227.42528-507.97056-507.96544-507.97056z" fill="#D8D8D8" p-id="6564"></path></svg>