<?xml version="1.0" standalone="no"?><!DOCTYPE svg PUBLIC "-//W3C//DTD SVG 1.1//EN" "http://www.w3.org/Graphics/SVG/1.1/DTD/svg11.dtd"><svg t="1580616157474" class="icon" viewBox="0 0 1024 1024" version="1.1" xmlns="http://www.w3.org/2000/svg" p-id="6304" xmlns:xlink="http://www.w3.org/1999/xlink" width="32" height="32"><defs><style type="text/css"></style></defs><path d="M398.08 587.264c-13.824-6.144-32.256 0-41.728 13.824-9.216 13.824-4.608 30.72 9.216 37.12 15.36 7.68 33.792 0 43.264-13.824 9.216-15.616 4.608-32.512-10.752-37.12z" fill="#EE3F47" p-id="6305"></path><path d="M419.84 469.504c-93.952 9.216-164.864 66.304-158.72 128 6.144 60.16 86.272 103.168 180.48 93.952 93.952-9.216 164.864-66.304 158.72-128-6.4-60.16-86.528-103.168-180.48-93.952z m73.728 148.48c-18.432 43.264-73.984 66.304-120.32 50.944-44.8-13.824-64.768-58.624-44.8-98.56 18.432-38.656 69.376-61.696 114.176-49.408 46.336 12.288 69.376 55.296 50.944 97.024z" fill="#EE3F47" p-id="6306"></path><path d="M512.768 1.792c-280.064 0-506.88 226.816-506.88 506.88s226.816 506.88 506.88 506.88 506.88-226.816 506.88-506.88S792.832 1.792 512.768 1.792z m-71.424 723.712c-115.2 0-233.728-55.296-237.312-146.688v-8.96c1.792-48.128 32.256-101.888 83.2-154.112 70.912-70.912 154.112-103.168 185.088-72.448 13.824 13.824 15.36 37.12 6.144 66.304-4.608 13.824 13.824 6.144 13.824 6.144 57.088-24.576 108.032-26.112 126.464 0 9.216 13.824 9.216 33.792 0 57.088-4.608 9.216 1.536 10.752 9.216 13.824 32.256 10.752 69.376 35.584 69.376 78.592 0 70.656-101.888 160.256-256 160.256z m203.52-334.592c-9.216-9.216-21.504-13.824-33.792-10.752-9.216 3.072-19.968-3.072-21.504-13.824-3.072-9.216 3.072-19.968 13.824-21.504 24.576-4.608 50.944 3.072 69.376 23.04 18.432 19.968 23.04 46.336 15.36 70.912-3.072 10.752-13.824 15.36-23.04 12.288-9.216-3.072-15.36-13.824-12.288-24.576 2.816-12.544 1.28-26.368-7.936-35.584z m118.784 72.448c-4.608 10.752-16.896 16.896-27.648 13.824-4.608-1.536-9.216-6.144-12.288-10.752-3.072-6.144-3.072-10.752-1.536-16.896 12.288-35.584 4.608-75.52-21.504-104.96-26.112-29.184-66.304-40.192-101.632-32.256-12.288 1.536-23.04-4.608-26.112-16.896-1.536-12.288 4.608-23.04 16.896-26.112 49.408-10.752 104.704 4.608 141.824 46.336 36.608 41.216 45.824 96.768 32 147.712z" fill="#EE3F47" p-id="6307"></path></svg>