<?xml version="1.0" standalone="no"?><!DOCTYPE svg PUBLIC "-//W3C//DTD SVG 1.1//EN" "http://www.w3.org/Graphics/SVG/1.1/DTD/svg11.dtd"><svg t="1581252992328" class="icon" viewBox="0 0 1024 1024" version="1.1" xmlns="http://www.w3.org/2000/svg" p-id="3608" xmlns:xlink="http://www.w3.org/1999/xlink" width="200" height="200"><defs><style type="text/css"></style></defs><path d="M195.584 245.76h571.392A31.66208 31.66208 0 0 1 798.72 277.36064v15.79008a31.66208 31.66208 0 0 1-31.744 31.60064H195.584A31.66208 31.66208 0 0 1 163.84 293.15072v-15.79008A31.66208 31.66208 0 0 1 195.584 245.76z m0 236.97408H608.256a31.66208 31.66208 0 0 1 31.744 31.60064v15.79008a31.66208 31.66208 0 0 1-31.744 31.60064H195.584A31.66208 31.66208 0 0 1 163.84 530.14528v-15.81056a31.66208 31.66208 0 0 1 31.744-31.60064z m0 236.97408h571.392A31.68256 31.68256 0 0 1 798.72 751.32928v15.81056A31.66208 31.66208 0 0 1 766.976 798.72H195.584A31.66208 31.66208 0 0 1 163.84 767.11936v-15.79008a31.66208 31.66208 0 0 1 31.744-31.60064z" p-id="3609" data-spm-anchor-id="a313x.7781069.0.i3" class="selected" fill="#bfbfbf"></path></svg>